<svg width="728" height="149" viewBox="0 0 728 149" fill="none" xmlns="http://www.w3.org/2000/svg">
<path d="M16 54.5C16 58.9183 12.4183 62.5 8 62.5V62.5C3.58172 62.5 0 58.9183 0 54.5L0 50.5C0 46.0817 3.58172 42.5 8 42.5V42.5C12.4183 42.5 16 46.0817 16 50.5L16 54.5Z" fill="#3629B7"/>
<rect y="64.5" width="16" height="20" rx="8" fill="#FBB8FF"/>
<path d="M0 94.5C0 90.0817 3.58172 86.5 8 86.5V86.5C12.4183 86.5 16 90.0817 16 94.5V98.5C16 102.918 12.4183 106.5 8 106.5V106.5C3.58172 106.5 0 102.918 0 98.5V94.5Z" fill="#FF4267"/>
<path d="M105 48C105 52.4183 101.418 56 97 56V56C92.5817 56 89 52.4183 89 48L89 37C89 32.5817 92.5817 29 97 29V29C101.418 29 105 32.5817 105 37L105 48Z" fill="#3629B7"/>
<rect x="89" y="58" width="16" height="32" rx="8" fill="#FBB8FF"/>
<path d="M89 100C89 95.5817 92.5817 92 97 92V92C101.418 92 105 95.5817 105 100V112C105 116.418 101.418 120 97 120V120C92.5817 120 89 116.418 89 112V100Z" fill="#FF4267"/>
<path d="M194 45C194 49.4183 190.418 53 186 53V53C181.582 53 178 49.4183 178 45L178 8C178 3.58172 181.582 0 186 0V0C190.418 0 194 3.58172 194 8L194 45Z" fill="#3629B7"/>
<rect x="178" y="55" width="16" height="43" rx="8" fill="#FBB8FF"/>
<path d="M178 108C178 103.582 181.582 100 186 100V100C190.418 100 194 103.582 194 108V141C194 145.418 190.418 149 186 149V149C181.582 149 178 145.418 178 141V108Z" fill="#FF4267"/>
<path d="M283 52C283 56.4183 279.418 60 275 60V60C270.582 60 267 56.4183 267 52V24C267 19.5817 270.582 16 275 16V16C279.418 16 283 19.5817 283 24V52Z" fill="#3629B7"/>
<rect x="267" y="62" width="16" height="32" rx="8" fill="#FBB8FF"/>
<path d="M267 104C267 99.5817 270.582 96 275 96V96C279.418 96 283 99.5817 283 104V125C283 129.418 279.418 133 275 133V133C270.582 133 267 129.418 267 125V104Z" fill="#FF4267"/>
<path d="M372 54.5C372 58.9183 368.418 62.5 364 62.5V62.5C359.582 62.5 356 58.9183 356 54.5V50.5C356 46.0817 359.582 42.5 364 42.5V42.5C368.418 42.5 372 46.0817 372 50.5V54.5Z" fill="#3629B7"/>
<rect x="356" y="64.5" width="16" height="20" rx="8" fill="#FBB8FF"/>
<path d="M356 94.5C356 90.0817 359.582 86.5 364 86.5V86.5C368.418 86.5 372 90.0817 372 94.5V98.5C372 102.918 368.418 106.5 364 106.5V106.5C359.582 106.5 356 102.918 356 98.5V94.5Z" fill="#FF4267"/>
<path d="M461 52C461 56.4183 457.418 60 453 60V60C448.582 60 445 56.4183 445 52V24C445 19.5817 448.582 16 453 16V16C457.418 16 461 19.5817 461 24V52Z" fill="#3629B7"/>
<rect x="445" y="62" width="16" height="32" rx="8" fill="#FBB8FF"/>
<path d="M445 104C445 99.5817 448.582 96 453 96V96C457.418 96 461 99.5817 461 104V125C461 129.418 457.418 133 453 133V133C448.582 133 445 129.418 445 125V104Z" fill="#FF4267"/>
<path d="M550 48C550 52.4183 546.418 56 542 56V56C537.582 56 534 52.4183 534 48V37C534 32.5817 537.582 29 542 29V29C546.418 29 550 32.5817 550 37V48Z" fill="#3629B7"/>
<rect x="534" y="58" width="16" height="32" rx="8" fill="#FBB8FF"/>
<path d="M534 100C534 95.5817 537.582 92 542 92V92C546.418 92 550 95.5817 550 100V112C550 116.418 546.418 120 542 120V120C537.582 120 534 116.418 534 112V100Z" fill="#FF4267"/>
<path d="M639 46C639 50.4183 635.418 54 631 54V54C626.582 54 623 50.4183 623 46V26C623 21.5817 626.582 18 631 18V18C635.418 18 639 21.5817 639 26V46Z" fill="#3629B7"/>
<rect x="623" y="56" width="16" height="32" rx="8" fill="#FBB8FF"/>
<path d="M623 98C623 93.5817 626.582 90 631 90V90C635.418 90 639 93.5817 639 98V123C639 127.418 635.418 131 631 131V131C626.582 131 623 127.418 623 123V98Z" fill="#FF4267"/>
<path d="M728 54.5C728 58.9183 724.418 62.5 720 62.5V62.5C715.582 62.5 712 58.9183 712 54.5V50.5C712 46.0817 715.582 42.5 720 42.5V42.5C724.418 42.5 728 46.0817 728 50.5V54.5Z" fill="#3629B7"/>
<rect x="712" y="64.5" width="16" height="20" rx="8" fill="#FBB8FF"/>
<path d="M712 94.5C712 90.0817 715.582 86.5 720 86.5V86.5C724.418 86.5 728 90.0817 728 94.5V98.5C728 102.918 724.418 106.5 720 106.5V106.5C715.582 106.5 712 102.918 712 98.5V94.5Z" fill="#FF4267"/>
</svg>
